<?xml version="1.0" encoding="UTF-8" standalone="no"?>
<!DOCTYPE svg PUBLIC "-//W3C//DTD SVG 1.1//EN"
 "http://www.w3.org/Graphics/SVG/1.1/DTD/svg11.dtd">
<!-- Generated by graphviz version 2.40.1 (0)
 -->
<!-- Title: %3 Pages: 1 -->
<svg width="1146pt" height="52pt"
 viewBox="0.00 0.00 1146.00 52.00" xmlns="http://www.w3.org/2000/svg" xmlns:xlink="http://www.w3.org/1999/xlink">
<g id="graph0" class="graph" transform="scale(1 1) rotate(0) translate(4 48)">
<title>%3</title>
<polygon fill="transparent" stroke="transparent" points="-4,4 -4,-48 1142,-48 1142,4 -4,4"/>
<!-- start -->
<g id="node1" class="node">
<title>start</title>
<ellipse fill="#d3d3d3" stroke="#000000" cx="22" cy="-22" rx="18" ry="18"/>
<ellipse fill="none" stroke="#000000" cx="22" cy="-22" rx="22" ry="22"/>
</g>
<!-- preadd -->
<g id="node3" class="node">
<title>preadd</title>
<polygon fill="#d3d3d3" stroke="#000000" points="198,-40 80,-40 80,-4 198,-4 198,-40"/>
<text text-anchor="middle" x="139" y="-18.3" font-family="Times,serif" font-size="14.00" fill="#000000">Pre&#45;add hooks</text>
</g>
<!-- start&#45;&gt;preadd -->
<g id="edge1" class="edge">
<title>start&#45;&gt;preadd</title>
<path fill="none" stroke="#000000" d="M44.0068,-22C51.4931,-22 60.3069,-22 69.4966,-22"/>
<polygon fill="#000000" stroke="#000000" points="69.5708,-25.5001 79.5708,-22 69.5708,-18.5001 69.5708,-25.5001"/>
</g>
<!-- end -->
<g id="node2" class="node">
<title>end</title>
<ellipse fill="#d3d3d3" stroke="#000000" cx="1116" cy="-22" rx="18" ry="18"/>
<ellipse fill="none" stroke="#000000" cx="1116" cy="-22" rx="22" ry="22"/>
</g>
<!-- add -->
<g id="node4" class="node">
<title>add</title>
<polygon fill="#d3d3d3" stroke="#000000" points="288,-40 234,-40 234,-4 288,-4 288,-40"/>
<text text-anchor="middle" x="261" y="-18.3" font-family="Times,serif" font-size="14.00" fill="#000000">Add</text>
</g>
<!-- preadd&#45;&gt;add -->
<g id="edge2" class="edge">
<title>preadd&#45;&gt;add</title>
<path fill="none" stroke="#000000" d="M198.2131,-22C206.909,-22 215.6533,-22 223.7384,-22"/>
<polygon fill="#000000" stroke="#000000" points="223.9278,-25.5001 233.9278,-22 223.9278,-18.5001 223.9278,-25.5001"/>
</g>
<!-- postadd -->
<g id="node5" class="node">
<title>postadd</title>
<polygon fill="#d3d3d3" stroke="#000000" points="448,-40 324,-40 324,-4 448,-4 448,-40"/>
<text text-anchor="middle" x="386" y="-18.3" font-family="Times,serif" font-size="14.00" fill="#000000">Post&#45;add hooks</text>
</g>
<!-- add&#45;&gt;postadd -->
<g id="edge3" class="edge">
<title>add&#45;&gt;postadd</title>
<path fill="none" stroke="#000000" d="M288.1231,-22C295.7921,-22 304.5207,-22 313.533,-22"/>
<polygon fill="#000000" stroke="#000000" points="313.7876,-25.5001 323.7875,-22 313.7875,-18.5001 313.7876,-25.5001"/>
</g>
<!-- copy -->
<g id="node6" class="node">
<title>copy</title>
<polygon fill="#d3d3d3" stroke="#000000" points="538,-40 484,-40 484,-4 538,-4 538,-40"/>
<text text-anchor="middle" x="511" y="-18.3" font-family="Times,serif" font-size="14.00" fill="#000000">Copy</text>
</g>
<!-- postadd&#45;&gt;copy -->
<g id="edge4" class="edge">
<title>postadd&#45;&gt;copy</title>
<path fill="none" stroke="#000000" d="M448.1338,-22C456.8249,-22 465.5255,-22 473.5633,-22"/>
<polygon fill="#000000" stroke="#000000" points="473.6914,-25.5001 483.6913,-22 473.6913,-18.5001 473.6914,-25.5001"/>
</g>
<!-- pregen -->
<g id="node7" class="node">
<title>pregen</title>
<polygon fill="#d3d3d3" stroke="#000000" points="729,-40 574,-40 574,-4 729,-4 729,-40"/>
<text text-anchor="middle" x="651.5" y="-18.3" font-family="Times,serif" font-size="14.00" fill="#000000">Pre&#45;generate hooks</text>
</g>
<!-- copy&#45;&gt;pregen -->
<g id="edge5" class="edge">
<title>copy&#45;&gt;pregen</title>
<path fill="none" stroke="#000000" d="M538.0898,-22C545.7612,-22 554.5537,-22 563.7752,-22"/>
<polygon fill="#000000" stroke="#000000" points="563.9171,-25.5001 573.917,-22 563.917,-18.5001 563.9171,-25.5001"/>
</g>
<!-- gen -->
<g id="node8" class="node">
<title>gen</title>
<polygon fill="#d3d3d3" stroke="#000000" points="861,-40 765,-40 765,-4 861,-4 861,-40"/>
<text text-anchor="middle" x="813" y="-18.3" font-family="Times,serif" font-size="14.00" fill="#000000">Generation</text>
</g>
<!-- pregen&#45;&gt;gen -->
<g id="edge6" class="edge">
<title>pregen&#45;&gt;gen</title>
<path fill="none" stroke="#000000" d="M729.4117,-22C737.9189,-22 746.4682,-22 754.6813,-22"/>
<polygon fill="#000000" stroke="#000000" points="754.8762,-25.5001 764.8761,-22 754.8761,-18.5001 754.8762,-25.5001"/>
</g>
<!-- postgen -->
<g id="node9" class="node">
<title>postgen</title>
<polygon fill="#d3d3d3" stroke="#000000" points="1058,-40 897,-40 897,-4 1058,-4 1058,-40"/>
<text text-anchor="middle" x="977.5" y="-18.3" font-family="Times,serif" font-size="14.00" fill="#000000">Post&#45;generate hooks</text>
</g>
<!-- gen&#45;&gt;postgen -->
<g id="edge7" class="edge">
<title>gen&#45;&gt;postgen</title>
<path fill="none" stroke="#000000" d="M861.0224,-22C869.2218,-22 877.9734,-22 886.8571,-22"/>
<polygon fill="#000000" stroke="#000000" points="886.9207,-25.5001 896.9207,-22 886.9206,-18.5001 886.9207,-25.5001"/>
</g>
<!-- postgen&#45;&gt;end -->
<g id="edge8" class="edge">
<title>postgen&#45;&gt;end</title>
<path fill="none" stroke="#000000" d="M1058.066,-22C1067.0669,-22 1075.8056,-22 1083.6515,-22"/>
<polygon fill="#000000" stroke="#000000" points="1083.738,-25.5001 1093.738,-22 1083.7379,-18.5001 1083.738,-25.5001"/>
</g>
</g>
</svg>
