<?xml version="1.0" encoding="UTF-8" standalone="no"?>
<!DOCTYPE svg PUBLIC "-//W3C//DTD SVG 1.1//EN"
 "http://www.w3.org/Graphics/SVG/1.1/DTD/svg11.dtd">
<!-- Generated by graphviz version 6.0.1 (20220911.1526)
 -->
<!-- Pages: 1 -->
<svg width="561pt" height="66pt"
 viewBox="0.00 0.00 561.00 66.00" xmlns="http://www.w3.org/2000/svg" xmlns:xlink="http://www.w3.org/1999/xlink">
<g id="graph0" class="graph" transform="scale(1 1) rotate(0) translate(4 62)">
<polygon fill="none" stroke="none" points="-4,4 -4,-62 557,-62 557,4 -4,4"/>
<!-- start -->
<g id="node1" class="node">
<title>start</title>
<ellipse fill="lightgrey" stroke="black" cx="22" cy="-22" rx="18" ry="18"/>
<ellipse fill="none" stroke="black" cx="22" cy="-22" rx="22" ry="22"/>
</g>
<!-- ADD -->
<g id="node3" class="node">
<title>ADD</title>
<polygon fill="lightgrey" stroke="black" points="134,-40 80,-40 80,-4 134,-4 134,-40"/>
<text text-anchor="middle" x="107" y="-18.3" font-family="Times,serif" font-size="14.00">ADD</text>
</g>
<!-- start&#45;&gt;ADD -->
<g id="edge1" class="edge">
<title>start&#45;&gt;ADD</title>
<path fill="none" stroke="black" d="M44.37,-22C52.09,-22 61.03,-22 69.67,-22"/>
<polygon fill="black" stroke="black" points="69.96,-25.5 79.96,-22 69.96,-18.5 69.96,-25.5"/>
</g>
<!-- end -->
<g id="node2" class="node">
<title>end</title>
<ellipse fill="lightgrey" stroke="black" cx="531" cy="-22" rx="18" ry="18"/>
<ellipse fill="none" stroke="black" cx="531" cy="-22" rx="22" ry="22"/>
</g>
<!-- ANALYZE -->
<g id="node4" class="node">
<title>ANALYZE</title>
<polygon fill="lightgrey" stroke="black" points="250,-40 170,-40 170,-4 250,-4 250,-40"/>
<text text-anchor="middle" x="210" y="-18.3" font-family="Times,serif" font-size="14.00">ANALYZE</text>
</g>
<!-- ADD&#45;&gt;ANALYZE -->
<g id="edge2" class="edge">
<title>ADD&#45;&gt;ANALYZE</title>
<path fill="none" stroke="black" d="M134.01,-22C141.82,-22 150.67,-22 159.48,-22"/>
<polygon fill="black" stroke="black" points="159.73,-25.5 169.73,-22 159.73,-18.5 159.73,-25.5"/>
</g>
<!-- ANALYZE&#45;&gt;ANALYZE -->
<g id="edge6" class="edge">
<title>ANALYZE&#45;&gt;ANALYZE</title>
<path fill="none" stroke="black" d="M192.16,-50.28C194.74,-54.86 200.68,-58 210,-58 225.29,-58 231.5,-49.54 228.63,-40.15"/>
<polygon fill="black" stroke="black" points="195.64,-49.85 191.37,-40.15 188.66,-50.4 195.64,-49.85"/>
</g>
<!-- LOWER -->
<g id="node5" class="node">
<title>LOWER</title>
<polygon fill="lightgrey" stroke="black" points="351,-40 286,-40 286,-4 351,-4 351,-40"/>
<text text-anchor="middle" x="318.5" y="-18.3" font-family="Times,serif" font-size="14.00">LOWER</text>
</g>
<!-- ANALYZE&#45;&gt;LOWER -->
<g id="edge3" class="edge">
<title>ANALYZE&#45;&gt;LOWER</title>
<path fill="none" stroke="black" d="M250.05,-22C258.41,-22 267.27,-22 275.72,-22"/>
<polygon fill="black" stroke="black" points="275.77,-25.5 285.77,-22 275.77,-18.5 275.77,-25.5"/>
</g>
<!-- GENERATE -->
<g id="node6" class="node">
<title>GENERATE</title>
<polygon fill="lightgrey" stroke="black" points="473,-40 387,-40 387,-4 473,-4 473,-40"/>
<text text-anchor="middle" x="430" y="-18.3" font-family="Times,serif" font-size="14.00">GENERATE</text>
</g>
<!-- LOWER&#45;&gt;GENERATE -->
<g id="edge4" class="edge">
<title>LOWER&#45;&gt;GENERATE</title>
<path fill="none" stroke="black" d="M351.17,-22C359.16,-22 367.95,-22 376.67,-22"/>
<polygon fill="black" stroke="black" points="376.8,-25.5 386.8,-22 376.8,-18.5 376.8,-25.5"/>
</g>
<!-- GENERATE&#45;&gt;end -->
<g id="edge5" class="edge">
<title>GENERATE&#45;&gt;end</title>
<path fill="none" stroke="black" d="M473.27,-22C481.82,-22 490.67,-22 498.76,-22"/>
<polygon fill="black" stroke="black" points="498.87,-25.5 508.87,-22 498.87,-18.5 498.87,-25.5"/>
</g>
</g>
</svg>
